<?xml version="1.0" encoding="UTF-8" standalone="no"?>
<!-- Generator: Gravit.io -->
<svg xmlns="http://www.w3.org/2000/svg" xmlns:xlink="http://www.w3.org/1999/xlink" style="isolation:isolate" viewBox="0 0 105 100" width="105pt" height="100pt"><defs><clipPath id="_clipPath_mCowXhIm2mL7H7BDHuVDhYzndlllSkMW"><rect width="105" height="100"/></clipPath></defs><g clip-path="url(#_clipPath_mCowXhIm2mL7H7BDHuVDhYzndlllSkMW)"><path d="M 36.5 337 L 77.5 337 C 93.781 337 107 350.219 107 366.5 L 107 407.5 C 107 423.781 93.781 437 77.5 437 L 36.5 437 C 20.219 437 7 423.781 7 407.5 L 7 366.5 C 7 350.219 20.219 337 36.5 337 Z" style="stroke:none;fill:#4169E1;stroke-miterlimit:10;"/><clipPath id="_clipPath_mMV2MFIuXuXilFBbbF3asYNNs1sVyPjB"><path d="M 36.5 337 L 77.5 337 C 93.781 337 107 350.219 107 366.5 L 107 407.5 C 107 423.781 93.781 437 77.5 437 L 36.5 437 C 20.219 437 7 423.781 7 407.5 L 7 366.5 C 7 350.219 20.219 337 36.5 337 Z" style="stroke:none;fill:#4169E1;stroke-miterlimit:10;"/></clipPath><g clip-path="url(#_clipPath_mMV2MFIuXuXilFBbbF3asYNNs1sVyPjB)"><g clip-path="url(#_clipPath_6hv4ryITJ4GGDIGgaFINWTVG7Fh3v29x)"><text transform="matrix(1,0,0,1,45,465.75)" style="font-family:'Cabin Condensed';font-weight:700;font-size:150px;font-style:normal;fill:#ffffff;stroke:none;">f</text></g><defs><clipPath id="_clipPath_6hv4ryITJ4GGDIGgaFINWTVG7Fh3v29x"><rect x="0" y="0" width="58.875" height="145" transform="matrix(1,0,0,1,45,321)"/></clipPath></defs></g><path d="M 14 18.5 L 93 18.5 C 98.795 18.5 103.5 23.205 103.5 29 L 103.5 68 C 103.5 73.795 98.795 78.5 93 78.5 L 14 78.5 C 8.205 78.5 3.5 73.795 3.5 68 L 3.5 29 C 3.5 23.205 8.205 18.5 14 18.5 Z" style="stroke:none;fill:#FFFFFF;stroke-miterlimit:10;"/><path d="M 14 18.5 L 93 18.5 C 98.795 18.5 103.5 23.205 103.5 29 L 103.5 68 C 103.5 73.795 98.795 78.5 93 78.5 L 14 78.5 C 8.205 78.5 3.5 73.795 3.5 68 L 3.5 29 C 3.5 23.205 8.205 18.5 14 18.5 Z" style="fill:none;stroke:#FFBF5F;stroke-width:3;stroke-linecap:square;stroke-miterlimit:2;"/><clipPath id="_clipPath_52uaCrSc32ZBMKoJsRJ1c3xftWNzkUxo"><path d="M 14 18.5 L 93 18.5 C 98.795 18.5 103.5 23.205 103.5 29 L 103.5 68 C 103.5 73.795 98.795 78.5 93 78.5 L 14 78.5 C 8.205 78.5 3.5 73.795 3.5 68 L 3.5 29 C 3.5 23.205 8.205 18.5 14 18.5 Z" style="stroke:none;fill:#FFFFFF;stroke-miterlimit:10;"/><path d="M 14 18.5 L 93 18.5 C 98.795 18.5 103.5 23.205 103.5 29 L 103.5 68 C 103.5 73.795 98.795 78.5 93 78.5 L 14 78.5 C 8.205 78.5 3.5 73.795 3.5 68 L 3.5 29 C 3.5 23.205 8.205 18.5 14 18.5 Z" style="fill:none;stroke:#FFBF5F;stroke-width:3;stroke-linecap:square;stroke-miterlimit:2;"/></clipPath><g clip-path="url(#_clipPath_52uaCrSc32ZBMKoJsRJ1c3xftWNzkUxo)"><path d=" M 100 95 L 6 95 L 6 76 L 54.111 33 L 100 76 L 100 95 Z " fill="none" vector-effect="non-scaling-stroke" stroke-width="3" stroke="rgb(255,191,95)" stroke-linejoin="round" stroke-linecap="round" stroke-miterlimit="3"/><path d=" M 7.444 22.444 L 54.111 60.222 L 98.556 22.444" fill="rgb(255,255,255)" vector-effect="non-scaling-stroke" stroke-width="3" stroke="rgb(255,191,95)" stroke-linejoin="round" stroke-linecap="round" stroke-miterlimit="3"/></g></g></svg>