<?xml version="1.0" encoding="UTF-8" standalone="no"?>
<!-- Generator: Gravit.io -->
<svg xmlns="http://www.w3.org/2000/svg" xmlns:xlink="http://www.w3.org/1999/xlink" style="isolation:isolate" viewBox="0 0 105 100" width="105pt" height="100pt"><defs><clipPath id="_clipPath_CtZJMrAgDAvaiO04hyTBCHrq8JVaNfvx"><rect width="105" height="100"/></clipPath></defs><g clip-path="url(#_clipPath_CtZJMrAgDAvaiO04hyTBCHrq8JVaNfvx)"><path d="M 36.5 337 L 77.5 337 C 93.781 337 107 350.219 107 366.5 L 107 407.5 C 107 423.781 93.781 437 77.5 437 L 36.5 437 C 20.219 437 7 423.781 7 407.5 L 7 366.5 C 7 350.219 20.219 337 36.5 337 Z" style="stroke:none;fill:#4169E1;stroke-miterlimit:10;"/><clipPath id="_clipPath_yzzIeqOjLuO19bhF5SuNoQqJ6EQqlX9I"><path d="M 36.5 337 L 77.5 337 C 93.781 337 107 350.219 107 366.5 L 107 407.5 C 107 423.781 93.781 437 77.5 437 L 36.5 437 C 20.219 437 7 423.781 7 407.5 L 7 366.5 C 7 350.219 20.219 337 36.5 337 Z" style="stroke:none;fill:#4169E1;stroke-miterlimit:10;"/></clipPath><g clip-path="url(#_clipPath_yzzIeqOjLuO19bhF5SuNoQqJ6EQqlX9I)"><g clip-path="url(#_clipPath_w76m8ce3IvNRufl6KEI0gJTn8P6d0lx7)"><text transform="matrix(1,0,0,1,45,465.75)" style="font-family:'Cabin Condensed';font-weight:700;font-size:150px;font-style:normal;fill:#ffffff;stroke:none;">f</text></g><defs><clipPath id="_clipPath_w76m8ce3IvNRufl6KEI0gJTn8P6d0lx7"><rect x="0" y="0" width="58.875" height="145" transform="matrix(1,0,0,1,45,321)"/></clipPath></defs></g><path d="M 18.977 4.71 L 88.083 4.71 C 96.929 4.71 104.11 11.891 104.11 20.736 L 104.11 80.264 C 104.11 89.109 96.929 96.29 88.083 96.29 L 18.977 96.29 C 10.131 96.29 2.95 89.109 2.95 80.264 L 2.95 20.736 C 2.95 11.891 10.131 4.71 18.977 4.71 Z" style="stroke:none;fill:#FFFFFF;stroke-miterlimit:10;"/><path d="M 18.977 4.71 L 88.083 4.71 C 96.929 4.71 104.11 11.891 104.11 20.736 L 104.11 80.264 C 104.11 89.109 96.929 96.29 88.083 96.29 L 18.977 96.29 C 10.131 96.29 2.95 89.109 2.95 80.264 L 2.95 20.736 C 2.95 11.891 10.131 4.71 18.977 4.71 Z" style="fill:none;stroke:#FFBF5F;stroke-width:3;stroke-linecap:round;stroke-linejoin:round;stroke-miterlimit:2;"/><clipPath id="_clipPath_CEVLIG0bXf6xPGjPeBA385Pge5w4AgOc"><path d="M 18.977 4.71 L 88.083 4.71 C 96.929 4.71 104.11 11.891 104.11 20.736 L 104.11 80.264 C 104.11 89.109 96.929 96.29 88.083 96.29 L 18.977 96.29 C 10.131 96.29 2.95 89.109 2.95 80.264 L 2.95 20.736 C 2.95 11.891 10.131 4.71 18.977 4.71 Z" style="stroke:none;fill:#FFFFFF;stroke-miterlimit:10;"/><path d="M 18.977 4.71 L 88.083 4.71 C 96.929 4.71 104.11 11.891 104.11 20.736 L 104.11 80.264 C 104.11 89.109 96.929 96.29 88.083 96.29 L 18.977 96.29 C 10.131 96.29 2.95 89.109 2.95 80.264 L 2.95 20.736 C 2.95 11.891 10.131 4.71 18.977 4.71 Z" style="fill:none;stroke:#FFBF5F;stroke-width:3;stroke-linecap:round;stroke-linejoin:round;stroke-miterlimit:2;"/></clipPath><g clip-path="url(#_clipPath_CEVLIG0bXf6xPGjPeBA385Pge5w4AgOc)"><path d=" M 1.385 83.014 L 47.176 48.938 L 64.214 68.106 L 81.252 54.262 L 103.615 72.365" fill="rgb(255,255,255)" vector-effect="non-scaling-stroke" stroke-width="3" stroke="rgb(255,191,95)" stroke-linejoin="round" stroke-linecap="round" stroke-miterlimit="3"/></g><circle vector-effect="non-scaling-stroke" cx="71.66810135008949" cy="30.40981085112854" r="9.584050675044754" fill="rgb(255,255,255)" stroke-width="3" stroke="rgb(255,191,95)" stroke-linejoin="round" stroke-linecap="round" stroke-miterlimit="3"/></g></svg>