<?xml version="1.0" encoding="UTF-8" standalone="no"?>
<!-- Generator: Gravit.io -->
<svg xmlns="http://www.w3.org/2000/svg" xmlns:xlink="http://www.w3.org/1999/xlink" style="isolation:isolate" viewBox="0 0 105 100" width="105pt" height="100pt"><defs><clipPath id="_clipPath_E0x5Vw7B32p4kzC7UegioCDZVdgFYIBt"><rect width="105" height="100"/></clipPath></defs><g clip-path="url(#_clipPath_E0x5Vw7B32p4kzC7UegioCDZVdgFYIBt)"><path d="M 36.5 337 L 77.5 337 C 93.781 337 107 350.219 107 366.5 L 107 407.5 C 107 423.781 93.781 437 77.5 437 L 36.5 437 C 20.219 437 7 423.781 7 407.5 L 7 366.5 C 7 350.219 20.219 337 36.5 337 Z" style="stroke:none;fill:#4169E1;stroke-miterlimit:10;"/><clipPath id="_clipPath_5jmCcvEhweixhPXdDif06ezj5GQPIdbT"><path d="M 36.5 337 L 77.5 337 C 93.781 337 107 350.219 107 366.5 L 107 407.5 C 107 423.781 93.781 437 77.5 437 L 36.5 437 C 20.219 437 7 423.781 7 407.5 L 7 366.5 C 7 350.219 20.219 337 36.5 337 Z" style="stroke:none;fill:#4169E1;stroke-miterlimit:10;"/></clipPath><g clip-path="url(#_clipPath_5jmCcvEhweixhPXdDif06ezj5GQPIdbT)"><g clip-path="url(#_clipPath_6ww2ShTNhu9GbJLy4EF6TIHlJYSNpxfl)"><text transform="matrix(1,0,0,1,45,465.75)" style="font-family:'Cabin Condensed';font-weight:700;font-size:150px;font-style:normal;fill:#ffffff;stroke:none;">f</text></g><defs><clipPath id="_clipPath_6ww2ShTNhu9GbJLy4EF6TIHlJYSNpxfl"><rect x="0" y="0" width="58.875" height="145" transform="matrix(1,0,0,1,45,321)"/></clipPath></defs></g><path d=" M 2.128 29.502 C 1.92 23.231 22.764 9.713 53.808 10 C 84.852 10.286 101.761 25.132 102.562 29.502 C 103.364 33.871 103.623 43.196 95.737 46.078 C 87.851 48.961 77.585 44.018 76.235 40.228 C 74.885 36.437 75.391 31.677 75.26 30.477 C 75.129 29.276 64.296 25.953 53.808 25.601 C 41.264 25.18 29.617 28.995 29.431 30.477 C 29.244 31.959 29.985 37.063 28.456 40.228 C 26.926 43.392 15.798 49.366 7.979 46.078 C 0.16 42.79 2.337 35.772 2.128 29.502 Z " fill="rgb(255,255,255)" vector-effect="non-scaling-stroke" stroke-width="3" stroke="rgb(255,191,95)" stroke-linejoin="miter" stroke-linecap="square" stroke-miterlimit="3"/><path d=" M 33.331 49.979 C 37.307 45.742 37.582 37.467 39.182 36.327 C 40.781 35.188 62.797 35.41 64.534 36.327 C 66.271 37.245 67.715 46.095 71.36 49.979 C 75.004 53.862 84.874 53.605 86.961 57.779 C 89.048 61.954 90.81 74.581 90.861 80.206 C 90.913 85.832 87.068 89.439 51.858 89.957 C 16.648 90.475 13.294 86.223 13.829 80.206 C 14.365 74.19 14.698 61.119 17.73 57.779 C 20.762 54.44 29.355 54.215 33.331 49.979 Z " fill="rgb(255,255,255)" vector-effect="non-scaling-stroke" stroke-width="3" stroke="rgb(255,191,95)" stroke-linejoin="miter" stroke-linecap="square" stroke-miterlimit="3"/><circle vector-effect="non-scaling-stroke" cx="52.321342404365865" cy="66.0675991192149" r="13.16372406213668" fill="rgb(255,255,255)" stroke-width="3" stroke="rgb(255,191,95)" stroke-linejoin="miter" stroke-linecap="butt" stroke-miterlimit="3"/></g></svg>