<?xml version="1.0" encoding="UTF-8" standalone="no"?>
<!-- Generator: Gravit.io -->
<svg xmlns="http://www.w3.org/2000/svg" xmlns:xlink="http://www.w3.org/1999/xlink" style="isolation:isolate" viewBox="0 0 80 100" width="80pt" height="100pt"><defs><clipPath id="_clipPath_jfE55TJ1p0P0YRxkOPDfENajNwVgGEqQ"><rect width="80" height="100"/></clipPath></defs><g clip-path="url(#_clipPath_jfE55TJ1p0P0YRxkOPDfENajNwVgGEqQ)"><path d="M 36.5 337 L 77.5 337 C 93.781 337 107 350.219 107 366.5 L 107 407.5 C 107 423.781 93.781 437 77.5 437 L 36.5 437 C 20.219 437 7 423.781 7 407.5 L 7 366.5 C 7 350.219 20.219 337 36.5 337 Z" style="stroke:none;fill:#4169E1;stroke-miterlimit:10;"/><clipPath id="_clipPath_mbmKLNTpu25BljB28yVgWYEDdePC5xPS"><path d="M 36.5 337 L 77.5 337 C 93.781 337 107 350.219 107 366.5 L 107 407.5 C 107 423.781 93.781 437 77.5 437 L 36.5 437 C 20.219 437 7 423.781 7 407.5 L 7 366.5 C 7 350.219 20.219 337 36.5 337 Z" style="stroke:none;fill:#4169E1;stroke-miterlimit:10;"/></clipPath><g clip-path="url(#_clipPath_mbmKLNTpu25BljB28yVgWYEDdePC5xPS)"><g clip-path="url(#_clipPath_wL9oUrVysWcOFfIG27acqY48In6lb776)"><text transform="matrix(1,0,0,1,45,465.75)" style="font-family:'Cabin Condensed';font-weight:700;font-size:150px;font-style:normal;fill:#ffffff;stroke:none;">f</text></g><defs><clipPath id="_clipPath_wL9oUrVysWcOFfIG27acqY48In6lb776"><rect x="0" y="0" width="58.875" height="145" transform="matrix(1,0,0,1,45,321)"/></clipPath></defs></g><mask id="_mask_8SebtY0mASy27Nv1hI28mQ0tcZcVaJO5"><circle vector-effect="non-scaling-stroke" cx="241.50000000000003" cy="194.50000000000003" r="10.499999999999972" fill="white" stroke="none"/></mask><circle vector-effect="non-scaling-stroke" cx="241.50000000000003" cy="194.50000000000003" r="10.499999999999972" fill="rgb(65,105,225)"/><circle vector-effect="non-scaling-stroke" cx="241.50000000000003" cy="194.50000000000003" r="10.499999999999972" fill="rgb(65,105,225)" mask="url(#_mask_8SebtY0mASy27Nv1hI28mQ0tcZcVaJO5)" stroke-width="20" stroke="rgb(65,105,225)" stroke-linejoin="miter" stroke-linecap="butt" stroke-miterlimit="3"/><mask id="_mask_8UkNlj3AIg69afwe9MHLUlWFjByImtoj"><circle vector-effect="non-scaling-stroke" cx="294.5" cy="194.50000000000003" r="10.5" fill="white" stroke="none"/></mask><circle vector-effect="non-scaling-stroke" cx="294.5" cy="194.50000000000003" r="10.5" fill="rgb(65,105,225)"/><circle vector-effect="non-scaling-stroke" cx="294.5" cy="194.50000000000003" r="10.5" fill="rgb(65,105,225)" mask="url(#_mask_8UkNlj3AIg69afwe9MHLUlWFjByImtoj)" stroke-width="20" stroke="rgb(65,105,225)" stroke-linejoin="miter" stroke-linecap="butt" stroke-miterlimit="3"/><path d=" M 75 25 L 75 91.46 C 75 94.242 72.742 96.5 69.96 96.5 L 8.04 96.5 C 5.258 96.5 3 94.242 3 91.46 L 3 8.54 C 3 5.758 5.258 3.5 8.04 3.5 L 57 3.5" fill="rgb(255,255,255)" vector-effect="non-scaling-stroke" stroke-width="3" stroke="rgb(255,191,95)" stroke-linejoin="round" stroke-linecap="round" stroke-miterlimit="3"/><line x1="13.5" y1="40" x2="64.5" y2="40" vector-effect="non-scaling-stroke" stroke-width="2" stroke="rgb(255,191,95)" stroke-linejoin="round" stroke-linecap="round" stroke-miterlimit="3"/><line x1="13.5" y1="50" x2="64.5" y2="50" vector-effect="non-scaling-stroke" stroke-width="2" stroke="rgb(255,191,95)" stroke-linejoin="round" stroke-linecap="round" stroke-miterlimit="3"/><line x1="13.5" y1="60" x2="64.5" y2="60" vector-effect="non-scaling-stroke" stroke-width="2" stroke="rgb(255,191,95)" stroke-linejoin="round" stroke-linecap="round" stroke-miterlimit="3"/><line x1="13.5" y1="70.469" x2="42.5" y2="70.469" vector-effect="non-scaling-stroke" stroke-width="2" stroke="rgb(255,191,95)" stroke-linejoin="round" stroke-linecap="round" stroke-miterlimit="3"/><path d=" M 57 3.5 L 57 25 L 75 25 L 57 3.5 Z " fill="rgb(255,255,255)" vector-effect="non-scaling-stroke" stroke-width="3" stroke="rgb(255,191,95)" stroke-linejoin="round" stroke-linecap="round" stroke-miterlimit="3"/><circle vector-effect="non-scaling-stroke" cx="48.74999999999999" cy="70.46875" r="1.2500000000000142" fill="rgb(255,191,95)"/></g></svg>