<?xml version="1.0" encoding="UTF-8" standalone="no"?>
<!-- Generator: Gravit.io -->
<svg xmlns="http://www.w3.org/2000/svg" xmlns:xlink="http://www.w3.org/1999/xlink" style="isolation:isolate" viewBox="0 0 105 100" width="105pt" height="100pt"><defs><clipPath id="_clipPath_mAEV4BvN1iQw0ZnU9SaAaWyo4PXEvyTF"><rect width="105" height="100"/></clipPath></defs><g clip-path="url(#_clipPath_mAEV4BvN1iQw0ZnU9SaAaWyo4PXEvyTF)"><path d="M 36.5 337 L 77.5 337 C 93.781 337 107 350.219 107 366.5 L 107 407.5 C 107 423.781 93.781 437 77.5 437 L 36.5 437 C 20.219 437 7 423.781 7 407.5 L 7 366.5 C 7 350.219 20.219 337 36.5 337 Z" style="stroke:none;fill:#4169E1;stroke-miterlimit:10;"/><clipPath id="_clipPath_udAYERjzsiBHkKyVteOBgsoBwcddEJtT"><path d="M 36.5 337 L 77.5 337 C 93.781 337 107 350.219 107 366.5 L 107 407.5 C 107 423.781 93.781 437 77.5 437 L 36.5 437 C 20.219 437 7 423.781 7 407.5 L 7 366.5 C 7 350.219 20.219 337 36.5 337 Z" style="stroke:none;fill:#4169E1;stroke-miterlimit:10;"/></clipPath><g clip-path="url(#_clipPath_udAYERjzsiBHkKyVteOBgsoBwcddEJtT)"><g clip-path="url(#_clipPath_LAuGPcm2bxtJG4uCYCX9roSHjMzeTc20)"><text transform="matrix(1,0,0,1,45,465.75)" style="font-family:'Cabin Condensed';font-weight:700;font-size:150px;font-style:normal;fill:#ffffff;stroke:none;">f</text></g><defs><clipPath id="_clipPath_LAuGPcm2bxtJG4uCYCX9roSHjMzeTc20"><rect x="0" y="0" width="58.875" height="145" transform="matrix(1,0,0,1,45,321)"/></clipPath></defs></g><path d=" M 4.381 25.818 C 0.596 26.838 13.947 53.699 30.05 67.989 C 41.313 77.984 55.505 77.459 59.387 76.24 C 63.268 75.021 59.094 68.545 63.054 65.239 C 67.013 61.933 73.357 74.38 80.472 76.24 C 87.587 78.101 96.418 78.091 100.641 75.323 C 104.864 72.556 83.721 57.214 85.056 52.404 C 86.391 47.594 104.864 28.104 100.641 25.818 C 96.418 23.532 80.885 24.623 78.639 24.901 C 76.393 25.179 68.895 49.634 63.054 49.654 C 57.212 49.674 62.67 27.887 60.303 24.901 C 57.937 21.916 41.435 21.4 36.468 24.901 C 38.986 26.557 39.723 26.972 41.051 28.568 C 42.38 30.164 42.467 45.895 39.676 48.737 Q 36.886 51.579 23.175 24.901 Q 8.166 24.798 4.381 25.818 Z " fill="rgb(255,191,95)" vector-effect="non-scaling-stroke" stroke-width="1" stroke="rgb(255,191,95)" stroke-linejoin="miter" stroke-linecap="square" stroke-miterlimit="3"/></g></svg>